<?xml version="1.0" encoding="UTF-8"?>
<!-- Generator: visioncortex VTracer -->
<svg id="svg" version="1.1" xmlns="http://www.w3.org/2000/svg" style="display: block;" viewBox="0 0 682 445"><path d="M0 0 C5.72524605 3.41996386 11.50558624 6.74325176 17.28515625 10.0703125 C18.94272949 11.02550781 18.94272949 11.02550781 20.63378906 12 C24.03805906 13.96154998 27.44281385 15.92225628 30.84765625 17.8828125 C44.52344575 25.75900583 58.18726911 33.65401534 71.81347656 41.61572266 C82.37385907 47.78200304 92.96892391 53.887772 103.56542969 59.99169922 C108.99425567 63.11961398 114.42084906 66.25139698 119.84765625 69.3828125 C122.01431208 70.63283129 124.18097875 71.88283128 126.34765625 73.1328125 C139.34765625 80.6328125 152.34765625 88.1328125 165.34765625 95.6328125 C166.42088135 96.25196533 167.49410645 96.87111816 168.59985352 97.5090332 C170.7592502 98.7548702 172.91859294 100.00080068 175.07788086 101.24682617 C180.60533222 104.43630203 186.13380746 107.62398135 191.6640625 110.80859375 C197.09746271 113.93756638 202.52631035 117.07433339 207.95361328 120.21386719 C210.59965569 121.7397948 213.25178432 123.25441666 215.90625 124.765625 C223.73871051 129.25123032 231.10332038 133.81785112 237.84765625 139.8828125 C238.55148437 140.50542969 239.2553125 141.12804687 239.98046875 141.76953125 C253.38390868 154.33207096 260.60728409 172.56783698 261.25268555 190.75439453 C261.47371353 207.36971635 256.781009 220.47655593 248.84765625 234.8828125 C248.31011719 235.87410156 247.77257812 236.86539063 247.21875 237.88671875 C246.11426103 239.89745508 244.9953015 241.89650342 243.84765625 243.8828125 C240.30331198 242.53825552 237.03966432 240.97052906 233.734375 239.1171875 C232.7458252 238.56393799 231.75727539 238.01068848 230.73876953 237.44067383 C229.15298096 236.54578247 229.15298096 236.54578247 227.53515625 235.6328125 C226.43155762 235.01237061 225.32795898 234.39192871 224.19091797 233.75268555 C215.5786491 228.89534631 207.00792323 223.96734901 198.49609375 218.93579102 C193.78488629 216.15321451 189.06196553 213.43676916 184.2265625 210.875 C183.3485498 210.39957764 182.47053711 209.92415527 181.56591797 209.43432617 C179.93801213 208.55692795 178.29827104 207.70096667 176.64501953 206.87231445 C172.49724677 204.60808697 170.48670222 202.94049153 168.9765625 198.37890625 C168.58877125 196.88314001 168.21126398 195.38464076 167.84765625 193.8828125 C167.14814257 192.15319306 166.40686241 190.43890981 165.59765625 188.7578125 C165.241875 187.99210938 164.88609375 187.22640625 164.51953125 186.4375 C159.5864767 178.89960824 152.76778259 174.70673736 145.03515625 170.3828125 C143.98763184 169.78460693 142.94010742 169.18640137 141.86083984 168.57006836 C139.64551492 167.305272 137.427686 166.04485253 135.20751953 164.78857422 C130.85621122 162.32045093 126.52633501 159.81614755 122.1965332 157.31054688 C118.93916228 155.42593394 115.67900449 153.54623229 112.41796875 151.66796875 C105.89279382 147.90925869 99.37002175 144.146395 92.84765625 140.3828125 C90.68100042 139.13279371 88.51433375 137.88279372 86.34765625 136.6328125 C73.34765625 129.1328125 60.34765625 121.6328125 47.34765625 114.1328125 C46.27483398 113.51390137 45.20201172 112.89499023 44.09667969 112.25732422 C41.93318149 111.00910216 39.76976982 109.76073011 37.60644531 108.51220703 C32.14200608 105.35875994 26.6760198 102.20805154 21.20703125 99.0625 C19.00381103 97.79443626 16.80068531 96.52620832 14.59765625 95.2578125 C13.52862061 94.64260742 12.45958496 94.02740234 11.3581543 93.39355469 C6.07574453 90.34695556 0.80953297 87.2766137 -4.4296875 84.15625 C-5.42645508 83.56279785 -6.42322266 82.9693457 -7.45019531 82.35791016 C-9.3152671 81.24447679 -11.17807328 80.12723541 -13.03808594 79.00537109 C-23.27637633 72.88727199 -32.59351871 69.15813153 -44.70703125 71.34375 C-55.93587256 74.31711919 -63.36918347 80.75857241 -69.20019531 90.66259766 C-71.27682023 94.30622957 -73.2826697 97.98713609 -75.28515625 101.671875 C-78.44031943 107.45448528 -81.75938355 113.13737002 -85.08984375 118.8203125 C-85.68200684 119.83359619 -86.27416992 120.84687988 -86.88427734 121.89086914 C-89.70735571 126.71900549 -92.54034761 131.54103026 -95.38671875 136.35546875 C-96.37116876 138.03120593 -97.35554785 139.70698479 -98.33984375 141.3828125 C-98.78513428 142.12909912 -99.2304248 142.87538574 -99.68920898 143.64428711 C-105.16553398 152.99501891 -108.53867324 162.53170014 -106.52734375 173.5078125 C-104.17647269 182.37123176 -98.94697263 190.55897977 -91.02734375 195.2578125 C-90.21293823 195.74483643 -90.21293823 195.74483643 -89.38208008 196.24169922 C-87.31363461 197.46977877 -85.23405937 198.67735696 -83.15234375 199.8828125 C-82.24049316 200.41197266 -81.32864258 200.94113281 -80.38916016 201.48632812 C-74.92472226 204.65314822 -69.45257761 207.80637286 -63.9765625 210.953125 C-57.68635413 214.57010579 -51.41604971 218.22017669 -45.15234375 221.8828125 C-33.60529727 228.63024609 -22.02332021 235.31620756 -10.43457031 241.99169922 C-5.00574433 245.11961398 0.42084906 248.25139698 5.84765625 251.3828125 C8.01431208 252.63283129 10.18097875 253.88283128 12.34765625 255.1328125 C25.34765625 262.6328125 25.34765625 262.6328125 28.60009766 264.50927734 C30.75856123 265.75450734 32.91708948 266.99962522 35.07568359 268.24462891 C40.61840366 271.44167587 46.15985633 274.64088845 51.69921875 277.84375 C57.12605453 280.98137008 62.5580603 284.10989225 67.9921875 287.23486328 C70.58531261 288.73140864 73.17066548 290.24038935 75.75390625 291.75390625 C77.1599649 292.5680389 78.56619839 293.38186971 79.97265625 294.1953125 C80.56900879 294.55028809 81.16536133 294.90526367 81.77978516 295.27099609 C87.39378081 298.48981588 93.27949834 300.17729563 99.78515625 300.1328125 C100.53667969 300.13796875 101.28820312 300.143125 102.0625 300.1484375 C104.7426453 300.01641124 104.7426453 300.01641124 106.71362305 299.17602539 C110.54563515 297.84772848 112.91137097 297.5330225 116.77661133 298.97705078 C120.19782687 300.79877473 123.49748587 302.77213994 126.78515625 304.8203125 C128.01715712 305.56027606 129.25083213 306.29745871 130.48608398 307.03198242 C133.03042757 308.54869469 135.56630788 310.07826255 138.09667969 311.61816406 C143.80717992 315.08216359 149.61364568 318.37783177 155.41015625 321.6953125 C157.53451209 322.92073514 159.6582246 324.14727383 161.78125 325.375 C162.79300293 325.95991211 163.80475586 326.54482422 164.84716797 327.14746094 C172.18228922 331.38977516 179.51622877 335.63411778 186.84765625 339.8828125 C183.37525332 355.48016335 169.36114356 370.52920235 156.5546875 379.08203125 C140.06966564 389.22257238 120.73942571 392.59412211 101.62890625 389.26953125 C82.60368068 384.65550753 65.53073189 372.64785456 48.84765625 362.8828125 C45.86286366 361.13843467 42.87777532 359.39456421 39.89257812 357.65087891 C37.9378701 356.50910714 35.98344521 355.36685051 34.02929688 354.22412109 C26.32959782 349.7284335 18.59399068 345.29739303 10.84765625 340.8828125 C1.12650008 335.3427952 -8.56129033 329.74906441 -18.21923828 324.09936523 C-28.74319 317.94514508 -39.30614512 311.85911254 -49.87011719 305.77392578 C-55.29894317 302.64601102 -60.72553656 299.51422802 -66.15234375 296.3828125 C-68.31899958 295.13279371 -70.48566625 293.88279372 -72.65234375 292.6328125 C-85.65234375 285.1328125 -98.65234375 277.6328125 -111.65234375 270.1328125 C-112.72581055 269.5135791 -113.79927734 268.8943457 -114.90527344 268.25634766 C-117.0624349 267.01168171 -119.21933787 265.76656764 -121.37597656 264.52099609 C-126.93597992 261.31058593 -132.50086909 258.10905625 -138.07421875 254.921875 C-186.14085118 227.40213389 -186.14085118 227.40213389 -196.52734375 197.6953125 C-204.42931735 167.8471013 -191.65170357 144.13210086 -177.13549805 119.14355469 C-175.80446376 116.85991261 -174.47266938 114.5767134 -173.14013672 112.29394531 C-169.95868023 106.83443781 -166.80656672 101.35808309 -163.65234375 95.8828125 C-162.40249417 93.71605906 -161.15249392 91.54939252 -159.90234375 89.3828125 C-159.28359375 88.3103125 -158.66484375 87.2378125 -158.02734375 86.1328125 C-156.15234375 82.8828125 -154.27734375 79.6328125 -152.40234375 76.3828125 C-151.78319092 75.3095874 -151.16403809 74.2363623 -150.52612305 73.13061523 C-149.28028605 70.97121855 -148.03435557 68.81187581 -146.78833008 66.65258789 C-143.59885422 61.12513653 -140.4111749 55.59666129 -137.2265625 50.06640625 C-134.09846575 44.63481468 -130.96394155 39.20697616 -127.82568359 33.78125 C-126.28952208 31.12042282 -124.76117931 28.45526508 -123.234375 25.7890625 C-119.00054151 18.43231849 -114.82327256 11.24888743 -109.15234375 4.8828125 C-108.43949219 4.06554687 -107.72664063 3.24828125 -106.9921875 2.40625 C-76.16262894 -30.77938865 -34.17336122 -20.43854032 0 0 Z " transform="translate(198.15234375,37.1171875)" style="fill: #FEFEFE;"/><path d="M0 0 C7.74813942 4.5338839 15.53404937 8.99902128 23.33398438 13.44287109 C33.05532536 18.98256009 42.7429353 24.57662172 52.40087891 30.22631836 C62.92483062 36.38053851 73.48778575 42.46657105 84.05175781 48.55175781 C89.4805838 51.67967258 94.90717719 54.81145557 100.33398438 57.94287109 C102.5006402 59.19288988 104.66730687 60.44288988 106.83398438 61.69287109 C119.83398438 69.19287109 132.83398438 76.69287109 145.83398438 84.19287109 C146.90712891 84.81194336 147.98027344 85.43101562 149.0859375 86.06884766 C151.2462673 87.3152917 153.4064244 88.56203511 155.56640625 89.80908203 C161.0786283 92.9910014 166.5940223 96.16719824 172.11523438 99.33349609 C178.53336467 103.01630357 184.93686419 106.72371411 191.33398438 110.44287109 C192.22714355 110.95865723 193.12030273 111.47444336 194.04052734 112.00585938 C214.15935879 123.66866976 227.91927719 137.17105102 235.70898438 159.69287109 C244.37940552 192.30671464 227.99414829 217.96647619 212.36816406 244.93896484 C208.80050578 251.08815421 205.21632079 257.22768349 201.62451172 263.36279297 C197.14275393 271.02699137 192.72943142 278.72902277 188.33398438 286.44287109 C182.70696389 296.31717171 177.03428901 306.16318383 171.28466797 315.96679688 C168.59030494 320.56233347 165.91498986 325.16556955 163.29882812 329.80615234 C158.54646135 338.2156704 153.88378631 346.26798433 147.33398438 353.44287109 C146.71265625 354.14412109 146.09132813 354.84537109 145.45117188 355.56787109 C133.50545976 368.33575772 115.9074057 375.91518791 98.52148438 376.72802734 C72.64357773 377.42397409 54.19108181 366.19352919 32.53271484 353.33251953 C27.19895615 350.18160423 21.82856638 347.09470858 16.45898438 344.00537109 C14.27666181 342.74761221 12.09437026 341.48979949 9.91210938 340.23193359 C7.71944387 338.9688384 5.52673549 337.70581765 3.33398438 336.44287109 C-10.34155877 328.56624521 -24.0056252 320.67167017 -37.63183594 312.70996094 C-48.19221845 306.54368056 -58.78728328 300.4379116 -69.38378906 294.33398438 C-74.81261505 291.20606961 -80.23920844 288.07428662 -85.66601562 284.94287109 C-87.83267145 283.6928523 -89.99933812 282.44285231 -92.16601562 281.19287109 C-105.16601562 273.69287109 -118.16601562 266.19287109 -131.16601562 258.69287109 C-132.77597412 257.76414185 -132.77597412 257.76414185 -134.41845703 256.81665039 C-136.57720266 255.57109539 -138.73573264 254.32516656 -140.89404297 253.07885742 C-146.43015989 249.88269265 -151.97028906 246.69383004 -157.51757812 243.51708984 C-193.21646571 223.055657 -193.21646571 223.055657 -202.66601562 213.44287109 C-203.50326172 212.60369141 -203.50326172 212.60369141 -204.35742188 211.74755859 C-218.61899918 196.33164997 -222.58996421 176.24278823 -221.83642578 155.94921875 C-221.00430745 143.7106417 -215.43504679 133.01599603 -209.66601562 122.44287109 C-208.85970703 120.95400391 -208.85970703 120.95400391 -208.03710938 119.43505859 C-206.9318827 117.42612806 -205.8130524 115.42812705 -204.66601562 113.44287109 C-200.32041256 114.38878387 -196.75533916 116.45703371 -192.91601562 118.63037109 C-191.73942383 119.29033081 -191.73942383 119.29033081 -190.5390625 119.96362305 C-182.00254781 124.77494733 -173.55100378 129.73295649 -165.09570312 134.68505859 C-158.17619256 138.7352415 -151.23576395 142.74868312 -144.29101562 146.75537109 C-143.16115234 147.40787842 -142.03128906 148.06038574 -140.8671875 148.73266602 C-139.82369141 149.3344165 -138.78019531 149.93616699 -137.70507812 150.55615234 C-136.77904785 151.09022705 -135.85301758 151.62430176 -134.89892578 152.17456055 C-133.50700433 152.96518289 -132.09780584 153.72697599 -130.66601562 154.44287109 C-130.18232208 156.25967124 -129.77935436 158.09822826 -129.41601562 159.94287109 C-126.80783979 170.88163842 -120.37664844 178.21292328 -110.94897461 184.15551758 C-107.89923466 185.90297317 -104.82340028 187.58922054 -101.72851562 189.25537109 C-99.47774915 190.49095506 -97.22774959 191.72793706 -94.97851562 192.96630859 C-93.89054687 193.56282227 -92.80257812 194.15933594 -91.68164062 194.77392578 C-87.82298966 196.90942918 -84.01757172 199.12429918 -80.22851562 201.38037109 C-73.25892558 205.51706015 -66.25098943 209.58409103 -59.22851562 213.63037109 C-58.1212915 214.26837646 -57.01406738 214.90638184 -55.87329102 215.5637207 C-53.60264495 216.87176586 -51.33189205 218.17962557 -49.06103516 219.48730469 C-43.59431583 222.63619163 -38.13026675 225.78970373 -32.66601562 228.94287109 C-30.49936252 230.19289459 -28.33269583 231.44289456 -26.16601562 232.69287109 C-21.83268229 235.19287109 -17.49934896 237.69287109 -13.16601562 240.19287109 C-12.09335449 240.81170166 -11.02069336 241.43053223 -9.91552734 242.06811523 C-7.75044492 243.31722627 -5.5854058 244.56641239 -3.42041016 245.81567383 C2.02014143 248.95489419 7.46145653 252.09277672 12.90429688 255.22802734 C13.98831787 255.85273926 15.07233887 256.47745117 16.18920898 257.12109375 C18.35639355 258.36997977 20.52387066 259.61835828 22.69165039 260.86621094 C28.11525643 263.99234864 33.52570722 267.13852435 38.91601562 270.32177734 C40.51775635 271.26525024 40.51775635 271.26525024 42.15185547 272.2277832 C44.15627519 273.41007397 46.1581333 274.59672439 48.15673828 275.78881836 C59.64454576 282.55845539 70.25340008 288.43906796 83.89257812 285.98193359 C96.67677189 282.59142979 103.19291408 274.92252258 109.67382812 263.88818359 C110.87826305 261.78439048 112.07722603 259.67745777 113.27148438 257.56787109 C114.25436364 255.84810941 115.2372514 254.12835253 116.22062683 252.40887451 C117.24019215 250.62458524 118.25748363 248.83901474 119.27441406 247.05322266 C122.62683203 241.17067792 126.01314566 235.30766392 129.39648438 229.44287109 C130.00290771 228.3885791 130.60933105 227.33428711 131.23413086 226.24804688 C134.45549756 220.65612249 137.7223882 215.09928327 141.08837891 209.59301758 C145.66000287 201.70154517 147.38900423 192.77913461 145.64648438 183.75537109 C141.58073642 168.57657872 131.4315992 162.53890893 118.48632812 155.00537109 C116.41614324 153.81538043 114.34446787 152.62797981 112.27148438 151.44287109 C110.55509757 150.45715498 108.83871309 149.47143479 107.12246704 148.48547363 C105.35730862 147.47181285 103.59154105 146.45921977 101.82568359 145.44677734 C96.32203373 142.28994381 90.8286143 139.11536823 85.33398438 135.94287109 C78.81175836 132.17904716 72.28884659 128.41642478 65.76367188 124.65771484 C54.27949617 118.04064218 42.81201544 111.39653133 31.36816406 104.70996094 C20.81969458 98.55063666 10.23618317 92.45253406 -0.34863281 86.35595703 C-3.7195587 84.41199359 -7.08767477 82.46324176 -10.45507812 80.51318359 C-15.86967117 77.37829555 -21.28989499 74.25341609 -26.71582031 71.13818359 C-28.61905174 70.04450277 -30.52085493 68.94833095 -32.42089844 67.84912109 C-34.87217698 66.43311363 -37.33024147 65.02979314 -39.79101562 63.63037109 C-40.82838867 63.0264856 -40.82838867 63.0264856 -41.88671875 62.41040039 C-47.99560504 58.96999769 -54.00105795 57.13645628 -61.10351562 57.25537109 C-61.94785156 57.26181641 -62.7921875 57.26826172 -63.66210938 57.27490234 C-66.50575365 57.33763128 -66.50575365 57.33763128 -68.56323242 57.92480469 C-76.54703298 59.66662553 -82.00732873 55.50444931 -88.60351562 51.44287109 C-89.83429672 50.70859141 -91.06650164 49.97669357 -92.30004883 49.24707031 C-94.84185106 47.74038307 -97.3764214 46.2225014 -99.90625 44.69580078 C-104.58446132 41.88074059 -109.31893405 39.16823874 -114.05737305 36.45581055 C-117.28909032 34.60477213 -120.51161499 32.73859654 -123.73242188 30.86865234 C-127.49389782 28.68795471 -131.26997783 26.53904614 -135.06835938 24.42333984 C-135.8750708 23.96749512 -136.68178223 23.51165039 -137.51293945 23.04199219 C-138.98388338 22.21122651 -140.46124145 21.39167089 -141.94604492 20.5859375 C-143.86132812 19.49365234 -143.86132812 19.49365234 -146.66601562 17.44287109 C-146.66601562 12.95556755 -145.36463035 10.54804266 -143.16601562 6.81787109 C-142.80362793 6.19759033 -142.44124023 5.57730957 -142.06787109 4.93823242 C-130.68366747 -14.12821505 -115.04057294 -25.29155557 -93.96679688 -31.67822266 C-58.93023178 -40.07797168 -28.48962435 -16.68744718 0 0 Z " transform="translate(444.666015625,56.55712890625)" style="fill: #FEFEFE;"/><path d="M0 0 C3.76495877 1.7452436 5.91161524 3.82189343 8.6875 6.9375 C9.12392822 7.42549072 9.56035645 7.91348145 10.01000977 8.41625977 C13.68115587 12.55501702 17.15707308 16.84326541 20.62109375 21.15625 C23.74849778 24.89475597 27.06520311 28.44312108 30.45874023 31.94116211 C32.96767608 34.59126802 34.2951586 36.43837199 35 40 C27.94306593 42.72211942 20.88526452 45.44198109 13.8269043 48.16040039 C11.43445954 49.08210229 9.04220131 50.00428855 6.65014648 50.92700195 C-7.52708579 56.39532054 -21.72010057 61.80503163 -36 67 C-35.40213103 62.96792414 -34.11214171 60.02436924 -32.11328125 56.484375 C-31.5112085 55.40986084 -30.90913574 54.33534668 -30.28881836 53.22827148 C-29.63019026 52.06876546 -28.9714139 50.90934364 -28.3125 49.75 C-27.63681703 48.54991737 -26.96177697 47.34947255 -26.28735352 46.14868164 C-24.89245009 43.66707343 -23.49393295 41.18755359 -22.09277344 38.70947266 C-20.0823948 35.15088609 -18.09005304 31.58258536 -16.1015625 28.01171875 C-14.88025297 25.82028762 -13.65890062 23.62888036 -12.4375 21.4375 C-11.87909424 20.43493164 -11.32068848 19.43236328 -10.74536133 18.39941406 C-7.27510026 12.19644629 -3.69419418 6.07229536 0 0 Z " transform="translate(599,0)" style="fill: #FEFEFE;"/><path d="M0 0 C1 3 1 3 0.26586914 4.80810547 C-0.14026611 5.48760254 -0.54640137 6.16709961 -0.96484375 6.8671875 C-1.65852051 8.05042603 -1.65852051 8.05042603 -2.36621094 9.25756836 C-3.14399902 10.55319702 -3.14399902 10.55319702 -3.9375 11.875 C-5.0479059 13.76816481 -6.1558408 15.66278042 -7.26171875 17.55859375 C-7.86290527 18.58710449 -8.4640918 19.61561523 -9.08349609 20.67529297 C-12.56336012 26.71208128 -15.9010248 32.82742756 -19.25 38.9375 C-24.40726111 48.34652103 -29.6491721 57.69970941 -35 67 C-35.99 67 -36.98 67 -38 67 C-39.875 65.015625 -39.875 65.015625 -42 62.25 C-45.35513887 58.00160987 -48.80290653 53.95275732 -52.5 50 C-56.92558229 45.24978204 -61.07130009 40.35192029 -65.125 35.27734375 C-66.89202673 33.02717887 -66.89202673 33.02717887 -68.75 31.37890625 C-70 30 -70 30 -70 27 C-62.79267814 24.21781689 -55.58532281 21.43572052 -48.37792683 18.65372944 C-45.02984873 17.36139792 -41.6817814 16.06903853 -38.33374023 14.77661133 C-35.09177971 13.52513515 -31.84978886 12.27373755 -28.60777855 11.02239037 C-26.79296754 10.32188966 -24.97818649 9.62131133 -23.16340637 8.92073059 C-15.44444783 5.94147446 -7.72310511 2.96848975 0 0 Z " transform="translate(121,378)" style="fill: #FEFEFE;"/><path d="M0 0 C1.64161838 11.2879703 2.72316252 22.56954107 3.625 33.9375 C3.76006274 35.60354435 3.89547755 37.26956021 4.03125 38.93554688 C4.35820916 42.95671562 4.68046163 46.97823505 5 51 C-6.0836466 48.5985069 -17.06955378 46.03086119 -28 43 C-28 38.32265683 -26.50763165 36.28565554 -23.9375 32.625 C-23.50501953 31.99376221 -23.07253906 31.36252441 -22.62695312 30.7121582 C-21.64922574 29.28596768 -20.66768302 27.86238808 -19.68310547 26.44091797 C-17.79449859 23.70197228 -15.92939529 20.94783746 -14.06640625 18.19140625 C-12.7112281 16.18990737 -11.3557605 14.18860445 -10 12.1875 C-9.3412085 11.21441895 -8.68241699 10.24133789 -8.00366211 9.23876953 C-7.38370361 8.32853027 -6.76374512 7.41829102 -6.125 6.48046875 C-5.57070312 5.66473389 -5.01640625 4.84899902 -4.4453125 4.00854492 C-1.56083627 0 -1.56083627 0 0 0 Z " transform="translate(147,389)" style="fill: #FEFEFE;"/><path d="M0 0 C8.88459983 1.91329298 17.76098595 3.85546131 26.5625 6.125 C27.78066406 6.43695312 28.99882813 6.74890625 30.25390625 7.0703125 C33 8 33 8 34 10 C26.95978977 20.61209331 19.89831179 31.21033926 12.75 41.75 C12.20190674 42.56509033 11.65381348 43.38018066 11.08911133 44.2199707 C10.32570435 45.34085083 10.32570435 45.34085083 9.546875 46.484375 C9.10182617 47.14147461 8.65677734 47.79857422 8.19824219 48.47558594 C7 50 7 50 5 51 C3.92340116 48.84680232 3.74700224 47.41216934 3.51928711 45.02856445 C3.43927963 44.21043777 3.35927216 43.3923111 3.27684021 42.5493927 C3.19450638 41.66297592 3.11217255 40.77655914 3.02734375 39.86328125 C2.8962899 38.49407784 2.8962899 38.49407784 2.7625885 37.09721375 C2.57830329 35.16142915 2.39602224 33.22545288 2.21557617 31.28930664 C1.94020082 28.34141231 1.65711646 25.39433337 1.37304688 22.44726562 C1.19484692 20.56514819 1.01709822 18.68298796 0.83984375 16.80078125 C0.75548569 15.92448563 0.67112762 15.04819 0.58421326 14.14533997 C0.14735841 9.40542338 -0.08652951 4.75992793 0 0 Z " transform="translate(533,5)" style="fill: #FEFEFE;"/></svg>